<svg xmlns="http://www.w3.org/2000/svg" viewBox="0 0 30.5 30.5"><g id="Layer_2" data-name="Layer 2"><g id="Icons"><g id="Phone"><path d="M25.23,19.27a2.32,2.32,0,0,0-3.51,0q-1.24,1.21-2.46,2.46a.48.48,0,0,1-.67.12c-.53-.29-1.1-.52-1.61-.84a25.62,25.62,0,0,1-6.15-5.6,14.26,14.26,0,0,1-2.2-3.52.51.51,0,0,1,.12-.65Q10,10,11.18,8.81a2.34,2.34,0,0,0,0-3.6L9.25,3.28l-2-2a2.33,2.33,0,0,0-3.51,0C2.92,2.11,2.12,3,1.28,3.75A4,4,0,0,0,0,6.45a11.35,11.35,0,0,0,.89,4.92,29.68,29.68,0,0,0,5.31,8.85A32.81,32.81,0,0,0,17.1,28.73a15.73,15.73,0,0,0,6,1.76,4.43,4.43,0,0,0,3.79-1.44c.71-.79,1.5-1.51,2.25-2.26a2.35,2.35,0,0,0,0-3.58Q27.22,21.23,25.23,19.27Z"/><path d="M30.41,13.56A25.55,25.55,0,0,0,16.86.07a1,1,0,0,0-1.29.57A1,1,0,0,0,16.12,2,23.56,23.56,0,0,1,28.61,14.4a1,1,0,0,0,.9.6,1,1,0,0,0,.41-.09A1,1,0,0,0,30.41,13.56Z"/><path d="M15.6,7.39a14.31,14.31,0,0,1,7.58,7.53.94.94,0,0,0,.87.58.92.92,0,0,0,.39-.09,1,1,0,0,0,.48-1.29,16.22,16.22,0,0,0-8.61-8.55,1,1,0,0,0-1.24.54A1,1,0,0,0,15.6,7.39Z"/></g></g></g></svg>